<?xml version="1.0" encoding="utf-8"?>
<svg viewBox="627.3679 252.3182 132.3521 37.0975" xmlns="http://www.w3.org/2000/svg">
  <text style="fill: rgb(255, 255, 255); font-family: Roboto; font-size: 22px; font-weight: 500; white-space: pre;" x="627.4" y="272.322" transform="matrix(1, 0, 0, 1, -5.684341886080802e-14, 0)">HANGAR</text>
  <text style="fill: rgb(166, 166, 166); font-family: Roboto; font-size: 14px; white-space: pre;" x="627.368" y="285.915" transform="matrix(1, 0, 0, 1, -5.684341886080802e-14, 0)">DASHBOARD</text>
  <path d="M 734.854 256.174 L 749.722 285.91 L 719.986 285.91 L 734.854 256.174 Z" style="fill: rgb(230, 64, 122);" transform="matrix(1, 0, 0, 1, -5.684341886080802e-14, 0)"/>
  <path d="M 740.842 286.574 L 709.488 286.574 L 725.165 255.22 L 740.842 286.574 Z M 711.106 285.574 L 739.224 285.574 L 725.165 257.456 L 711.106 285.574 Z" style="fill: none;" transform="matrix(1, 0, 0, 1, -5.684341886080802e-14, 0)"/>
  <path d="M 740.842 286.574 L 709.488 286.574 L 725.165 255.22 L 740.842 286.574 Z M 711.106 285.574 L 739.224 285.574 L 725.165 257.456 L 711.106 285.574 Z" style="fill: none;" transform="matrix(1, 0, 0, 1, -5.684341886080802e-14, 0)"/>
  <path d="M 740.842 286.574 L 709.488 286.574 L 725.165 255.22 L 740.842 286.574 Z M 711.106 285.574 L 739.224 285.574 L 725.165 257.456 L 711.106 285.574 Z" style="fill: none;" transform="matrix(1, 0, 0, 1, -5.684341886080802e-14, 0)"/>
  <path d="M 746.704 259.885 L 759.72 285.916 L 752.709 285.916 L 743.199 266.896 L 746.704 259.885 Z" style="fill: rgb(230, 64, 122);" transform="matrix(1, 0, 0, 1, -5.684341886080802e-14, 0)"/>
</svg>